<svg xmlns="http://www.w3.org/2000/svg" xmlns:xlink="http://www.w3.org/1999/xlink" viewBox="0 0 115.98 115.98"><defs><style>.cls-1{fill:url(#Degradado_sin_nombre_5);}.cls-2{opacity:0.1;}.cls-3{fill:#f09840;}.cls-4,.cls-5,.cls-6{opacity:0.4;}.cls-4{fill:url(#Degradado_sin_nombre_16);}.cls-5{fill:url(#Degradado_sin_nombre_16-2);}.cls-6{fill:url(#Degradado_sin_nombre_16-3);}</style><linearGradient id="Degradado_sin_nombre_5" x1="21.66" y1="0.49" x2="88.02" y2="105.52" gradientUnits="userSpaceOnUse"><stop offset="0.19" stop-color="#fff0d6"/><stop offset="0.53" stop-color="#fbc78e"/></linearGradient><linearGradient id="Degradado_sin_nombre_16" x1="15.63" y1="28.76" x2="45.17" y2="50.5" gradientUnits="userSpaceOnUse"><stop offset="0" stop-color="#bf5117"/><stop offset="1" stop-color="#fbc78e" stop-opacity="0"/></linearGradient><linearGradient id="Degradado_sin_nombre_16-2" x1="40.9" y1="10.45" x2="59.66" y2="24.25" xlink:href="#Degradado_sin_nombre_16"/><linearGradient id="Degradado_sin_nombre_16-3" x1="46.27" y1="30.39" x2="55.17" y2="36.93" xlink:href="#Degradado_sin_nombre_16"/></defs><title>luna</title><g id="Capa_2" data-name="Capa 2"><g id="Capa_1-2" data-name="Capa 1"><circle class="cls-1" cx="57.99" cy="57.99" r="57.99"/><g class="cls-2"><path class="cls-3" d="M58,7A51,51,0,1,1,7,58,51,51,0,0,1,58,7m0-7a58,58,0,1,0,58,58A58,58,0,0,0,58,0Z"/></g><circle class="cls-4" cx="28.22" cy="38.02" r="14.32"/><circle class="cls-5" cx="48.9" cy="16.33" r="9.09"/><circle class="cls-6" cx="52.56" cy="35.02" r="5.43"/></g></g></svg>