<svg xmlns="http://www.w3.org/2000/svg" xmlns:xlink="http://www.w3.org/1999/xlink" viewBox="0 0 110.12 68.87"><defs><style>.cls-1{fill:url(#Degradado_sin_nombre_27);}</style><linearGradient id="Degradado_sin_nombre_27" x1="61.5" y1="69.12" x2="33.85" y2="5.21" gradientUnits="userSpaceOnUse"><stop offset="0.19" stop-color="#a1a7ba"/><stop offset="1" stop-color="#bbc3d4"/></linearGradient></defs><title>nube-simple</title><g id="Capa_2" data-name="Capa 2"><g id="Capa_1-2" data-name="Capa 1"><path class="cls-1" d="M95.5,39.61H88.2a29.88,29.88,0,0,0,1-7.6c0-17.68-19-32-37.87-32S14.09,14.33,14.09,32a29.88,29.88,0,0,0,1,7.6h-.44A14.67,14.67,0,0,0,0,54.24H0A14.67,14.67,0,0,0,14.63,68.87H95.5a14.67,14.67,0,0,0,14.62-14.63h0A14.67,14.67,0,0,0,95.5,39.61Z"/></g></g></svg>